<?xml version="1.0" encoding="UTF-8"?>
<svg width="23px" height="17px" viewBox="0 0 23 17" version="1.1" xmlns="http://www.w3.org/2000/svg" xmlns:xlink="http://www.w3.org/1999/xlink">
    <!-- Generator: Sketch 54 (76480) - https://sketchapp.com -->
    <title>menu (13)</title>
    <desc>Created with Sketch.</desc>
    <g id="Page-1" stroke="none" stroke-width="1" fill="none" fill-rule="evenodd">
        <g id="USER_PANEL_BLOG" transform="translate(-1817.000000, -293.000000)" fill="#000000" fill-rule="nonzero">
            <g id="menu-(13)" transform="translate(1817.000000, 293.000000)">
                <path d="M22.0416667,9.45811321 L0.958333333,9.45811321 C0.429331477,9.45811321 0,9.01978417 0,8.47969595 C0,7.93960772 0.429331477,7.50127868 0.958333333,7.50127868 L22.0416667,7.50127868 C22.5706685,7.50127868 23,7.93960772 23,8.47969595 C23,9.01978417 22.5706685,9.45811321 22.0416667,9.45811321 Z" id="Path"></path>
                <path d="M22.0416667,1.95683453 L0.958333333,1.95683453 C0.429331477,1.95683453 0,1.51850549 0,0.978417266 C0,0.43832904 0.429331477,0 0.958333333,0 L22.0416667,0 C22.5706685,0 23,0.43832904 23,0.978417266 C23,1.51850549 22.5706685,1.95683453 22.0416667,1.95683453 Z" id="Path"></path>
                <path d="M22.0416667,16.959153 L0.958333333,16.959153 C0.429331477,16.959153 0,16.5208239 0,15.9807357 C0,15.4406475 0.429331477,15.0023184 0.958333333,15.0023184 L22.0416667,15.0023184 C22.5706685,15.0023184 23,15.4406475 23,15.9807357 C23,16.5208239 22.5706685,16.959153 22.0416667,16.959153 Z" id="Path"></path>
            </g>
        </g>
    </g>
</svg>