<?xml version="1.0" encoding="UTF-8"?>
<svg width="20px" height="20px" viewBox="0 0 20 20" version="1.1" xmlns="http://www.w3.org/2000/svg" xmlns:xlink="http://www.w3.org/1999/xlink">
    <title>plus</title>
    <g id="Page-1" stroke="none" stroke-width="1" fill-rule="evenodd">
        <g id="USER_PANEL_BLOG" transform="translate(-1711.000000, -138.000000)" fill-rule="nonzero">
            <g id="plus-(6)" transform="translate(1711.000000, 138.000000)">
                <path d="M10,0 C4.48615385,0 0,4.48576923 0,10 C0,15.5142308 4.48615385,20 10,20 C15.5138462,20 20,15.5142308 20,10 C20,4.48576923 15.5138462,0 10,0 Z M14.8076923,10.7692308 L10.7692308,10.7692308 L10.7692308,15 C10.7692308,15.4246154 10.4246154,15.7692308 10,15.7692308 C9.57538462,15.7692308 9.23076923,15.4246154 9.23076923,15 L9.23076923,10.7692308 L5.19230769,10.7692308 C4.76769231,10.7692308 4.42307692,10.4246154 4.42307692,10 C4.42307692,9.57538462 4.76769231,9.23076923 5.19230769,9.23076923 L9.23076923,9.23076923 L9.23076923,5.38461538 C9.23076923,4.96 9.57538462,4.61538462 10,4.61538462 C10.4246154,4.61538462 10.7692308,4.96 10.7692308,5.38461538 L10.7692308,9.23076923 L14.8076923,9.23076923 C15.2323077,9.23076923 15.5769231,9.57538462 15.5769231,10 C15.5769231,10.4246154 15.2323077,10.7692308 14.8076923,10.7692308 Z" id="Shape"></path>
            </g>
        </g>
    </g>
</svg>